<svg width="30" height="30" viewBox="0 0 30 30" fill="none" xmlns="http://www.w3.org/2000/svg">
<path fill-rule="evenodd" clip-rule="evenodd" d="M10.9988 17.186H19.0013L24.5812 19.0531C24.8575 19.1456 25.0298 19.3907 25.0654 19.68L25.9356 26.7298C26.0276 27.4755 25.4533 28.1251 24.7019 28.1251H5.29808C4.54668 28.1251 3.97236 27.4755 4.06439 26.7298L4.93451 19.68C4.97018 19.3907 5.14243 19.1456 5.41879 19.0531L10.9988 17.186Z" fill="#0087FF"/>
<path fill-rule="evenodd" clip-rule="evenodd" d="M15.0803 21.6751L16.3433 28.1251C18.1874 27.1693 18.9635 23.8159 19.0011 17.186L16.2261 20.383L15.0803 21.6751Z" fill="#ABECFB"/>
<path fill-rule="evenodd" clip-rule="evenodd" d="M10.9988 17.186C11.0364 23.8159 11.8125 27.1693 13.6566 28.1251L14.9196 21.6751L13.7739 20.383L10.9988 17.186Z" fill="#ABECFB"/>
<path fill-rule="evenodd" clip-rule="evenodd" d="M12.1265 16.2781L15.0001 19.1517L17.8737 16.2781V13.1759H12.1265L12.1265 16.2781Z" fill="#FFD180"/>
<path fill-rule="evenodd" clip-rule="evenodd" d="M17.8737 14.4642V13.1759H12.1265V14.4642C12.851 15.3342 13.838 15.9494 15.0001 15.9494C16.1622 15.9494 17.1491 15.3342 17.8737 14.4642Z" fill="#D3AF6D"/>
<path fill-rule="evenodd" clip-rule="evenodd" d="M10.1429 8.92858L20.0749 9.07293C21.8181 1.86516 13.6263 0.650948 12.6104 2.88959C11.4446 3.23395 10.4897 4.07476 10.0006 5.18769C9.5115 6.3006 9.60818 7.83682 10.1429 8.92858Z" fill="#615C5A"/>
<path fill-rule="evenodd" clip-rule="evenodd" d="M15 18.9319L17.8736 16.0583L19.0012 17.186L17.1825 21.5145L15 18.9319Z" fill="#58C5FB"/>
<path fill-rule="evenodd" clip-rule="evenodd" d="M15 18.9319L12.1264 16.0583L10.9988 17.186L12.8175 21.5145L15 18.9319Z" fill="#58C5FB"/>
<path fill-rule="evenodd" clip-rule="evenodd" d="M18.4988 11.6944L18.9888 8.87356C21.3891 8.42953 20.4707 12.1491 18.4988 11.6944Z" fill="#FFBC68"/>
<path fill-rule="evenodd" clip-rule="evenodd" d="M11.5012 11.6944L11.0112 8.87356C8.61089 8.42953 9.52929 12.1491 11.5012 11.6944Z" fill="#FFBC68"/>
<path fill-rule="evenodd" clip-rule="evenodd" d="M11.107 9.99044C11.675 13.5539 13.3387 15.2487 15 15.217C16.6612 15.2487 18.3249 13.5539 18.893 9.99044C19.2202 7.93944 18.7088 6.64189 17.3586 6.09778C15.0197 6.93196 13.4473 6.97442 12.6414 6.09778C11.2912 6.64189 10.7798 7.93944 11.107 9.99044Z" fill="#FFD180"/>
<path fill-rule="evenodd" clip-rule="evenodd" d="M14.48 21.6751L13.6565 28.1251H16.3433L15.5198 21.6751L16.2261 20.3831L14.9999 18.932L13.7738 20.3831L14.48 21.6751Z" fill="#FD481E"/>
</svg>
