<svg width="28" height="28" viewBox="0 0 28 28" fill="none" xmlns="http://www.w3.org/2000/svg">
<g clip-path="url(#clip0_225_4333)">
<path d="M18.375 3.9375V5.25L17.5 4.8125L16.625 5.25L15.75 4.8125L14.875 5.25V3.9375V0.4375H18.375V3.9375Z" fill="#E2DEDE"/>
<path d="M17.5 0.4375V3.69687C17.5 3.84431 17.4169 3.97906 17.2847 4.04513L16.8206 4.277C16.6972 4.33869 16.5524 4.33869 16.4294 4.277L15.9456 4.03506C15.8222 3.97337 15.6774 3.97337 15.5544 4.03506L14.875 4.375V5.25L15.75 4.8125L16.625 5.25L17.5 4.8125L18.375 5.25V4.375V0.4375H17.5Z" fill="#D3BEBE"/>
<path d="M16.625 22.3125V24.5C16.625 24.7406 16.4281 24.9375 16.1875 24.9375H11.8125C11.5719 24.9375 11.375 24.7406 11.375 24.5V22.3125H12.6875H12.7269H16.625Z" fill="#FFCA3A"/>
<path d="M16.625 22.3125V24.5C16.625 24.7406 16.4281 24.9375 16.1875 24.9375H11.8125C11.5719 24.9375 11.375 24.7406 11.375 24.5V24.0625H15.3125C15.5531 24.0625 15.75 23.8656 15.75 23.625V22.3125H16.625Z" fill="#FF9700"/>
<path d="M27.5625 22.75V27.125C27.5625 27.3656 27.3656 27.5625 27.125 27.5625H0.875C0.634375 27.5625 0.4375 27.3656 0.4375 27.125V22.75C0.4375 22.5094 0.634375 22.3125 0.875 22.3125H2.14812H11.375V24.5C11.375 24.7406 11.5719 24.9375 11.8125 24.9375H16.1875C16.4281 24.9375 16.625 24.7406 16.625 24.5V22.3125H23.625H27.125C27.3656 22.3125 27.5625 22.5094 27.5625 22.75Z" fill="#E89A10"/>
<path d="M11.375 22.3125V23.625H0.875C0.634375 23.625 0.4375 23.8219 0.4375 24.0625V22.75C0.4375 22.5094 0.634375 22.3125 0.875 22.3125H11.375Z" fill="#EFAB48"/>
<path d="M23.6687 23.625H16.625V22.3125H24.605C24.7879 22.3125 24.9375 22.5094 24.9375 22.75C24.7371 23.2767 24.2322 23.625 23.6687 23.625Z" fill="#EFAB48"/>
<path d="M27.5625 22.75V27.125C27.5625 27.3656 27.3656 27.5625 27.125 27.5625H0.875C0.634375 27.5625 0.4375 27.3656 0.4375 27.125V26.25H22.3125C24.4781 26.25 26.25 24.4781 26.25 22.3125H27.125C27.3656 22.3125 27.5625 22.5094 27.5625 22.75Z" fill="#C97700"/>
<path d="M13.5625 17.5L13.16 21.9144C13.1425 22.1419 12.95 22.3125 12.7269 22.3125H12.6875H11.375H2.14812C1.925 22.3125 1.7325 22.1419 1.715 21.9144L1.3125 17.5H5.6875V18.8125C5.6875 19.0531 5.88438 19.25 6.125 19.25H8.75C8.99062 19.25 9.1875 19.0531 9.1875 18.8125V17.5H13.5625Z" fill="#E89A10"/>
<path d="M9.1875 17.5V18.8125C9.1875 19.0531 8.99062 19.25 8.75 19.25H6.125C5.88437 19.25 5.6875 19.0531 5.6875 18.8125V17.5H9.1875Z" fill="#FFCA3A"/>
<path d="M9.1875 17.5V18.8125C9.1875 19.0531 8.99062 19.25 8.75 19.25H6.125C5.88437 19.25 5.6875 19.0531 5.6875 18.8125V18.375H7.875C8.11562 18.375 8.3125 18.1781 8.3125 17.9375V17.5H9.1875Z" fill="#FF9700"/>
<path d="M13.5624 17.5H12.6086H10.0624H9.18739V18.375V18.8125C9.18739 19.0531 8.99052 19.25 8.74989 19.25H6.56239C6.56239 19.4906 6.75927 19.6875 6.99989 19.6875H9.62489C9.86552 19.6875 10.0624 19.4906 10.0624 19.25V18.375H12.0491C12.3063 18.375 12.508 18.5959 12.4848 18.8523L12.2849 21.0394C12.2674 21.2669 12.0749 21.4375 11.8518 21.4375H1.67114L1.71489 21.9144C1.73239 22.1419 1.92489 22.3125 2.14802 22.3125H12.7268C12.9499 22.3125 13.1424 22.1419 13.1599 21.9144L13.4828 18.375H13.4836L13.5624 17.5Z" fill="#C97700"/>
<path d="M5.6875 17.5H1.3125L1.39125 18.375H5.6875V17.5Z" fill="#C97700"/>
<path d="M14.4199 16.9488C14.4987 17.2244 14.2843 17.5 13.9912 17.5H13.5624H9.18741H5.68741H1.31241H0.883656C0.590531 17.5 0.376156 17.2244 0.454906 16.9488L1.54866 13.0112C1.60116 12.8187 1.77616 12.6875 1.97741 12.6875H7.69116H12.8974C13.0987 12.6875 13.2737 12.8187 13.3262 13.0112L14.4199 16.9488Z" fill="#EFAB48"/>
<path d="M9.41007 13.5625H1.39551L1.54776 13.0139C1.60157 12.8209 1.77701 12.6875 1.97738 12.6875H9.39738C9.59776 12.6875 9.77319 12.8209 9.82701 13.0139C9.90357 13.2895 9.69619 13.5625 9.41007 13.5625Z" fill="#EFBD7B"/>
<path d="M13.9912 17.5H0.883656C0.590531 17.5 0.376156 17.2244 0.454906 16.9488L0.546781 16.625H12.6787C12.9718 16.625 13.1862 16.3494 13.1074 16.0738L12.1668 12.6875H12.8974C13.0987 12.6875 13.2737 12.8187 13.3262 13.0112L14.4199 16.9488C14.4987 17.2244 14.2843 17.5 13.9912 17.5Z" fill="#E89A10"/>
<path d="M26.6875 18.8125L27.125 22.3125H23.625L24.0625 18.8125L24.9375 3.9375H25.375L26.25 0.4375L26.6875 18.8125Z" fill="#D1800B"/>
<path d="M26.6875 18.8125L27.125 22.3125H23.625L24.0625 18.8125L24.9375 3.9375H25.375L26.25 0.4375L26.6875 18.8125Z" fill="#D1800B"/>
<path d="M26.6875 18.8125L26.4674 9.57512C25.5255 13.1972 26.8336 17.514 24.8557 20.3394L24.9375 19.6875L25.8125 4.8125H26.25L26.3463 4.43187L26.25 0.4375L25.375 3.9375H24.9375L24.0625 18.8125L23.625 22.3125H24.6094H27.125L26.6875 18.8125Z" fill="#AD6207"/>
<path d="M14.875 0.4375V3.9375H8.3125H7.875L8.75 0.4375H14.875Z" fill="#EFAB48"/>
<path d="M14.875 0.4375V1.3125H8.53125L8.75 0.4375H14.875Z" fill="#EFBD7B"/>
<path d="M26.25 0.4375L25.375 3.9375H24.9375H18.375V0.4375H26.25Z" fill="#EFAB48"/>
<path d="M24.3639 0.981313C24.3154 1.176 24.1404 1.3125 23.9396 1.3125H18.375V0.4375H23.9396C24.2244 0.4375 24.4331 0.704812 24.3639 0.981313Z" fill="#EFBD7B"/>
<path d="M24.9374 3.9375L24.0624 18.8125L23.6249 22.3125H16.6249H12.7268C12.9499 22.3125 13.1424 22.1419 13.1599 21.9144L13.5624 17.5H13.9912C14.2843 17.5 14.4987 17.2244 14.4199 16.9488L13.3262 13.0112C13.2737 12.8187 13.0987 12.6875 12.8974 12.6875H7.69116L8.31241 3.9375H14.8749V5.25L15.7499 4.8125L16.6249 5.25L17.4999 4.8125L18.3749 5.25V3.9375H24.9374Z" fill="#E89A10"/>
<path d="M24.9374 3.9375L24.0624 18.8125L23.6249 22.3125H13.6018C13.8249 22.3125 14.0174 22.1419 14.0349 21.9144L14.4374 17.5H14.8662C15.1593 17.5 15.3737 17.2244 15.2949 16.9488L14.2012 13.0112C14.1487 12.8187 13.9737 12.6875 13.7724 12.6875H7.69116L8.31241 3.9375H14.8749V5.25L15.7499 4.8125L16.6249 5.25L17.4999 4.8125L18.3749 5.25V3.9375H24.9374Z" fill="#DB8C0E"/>
<path d="M23.9264 6.5349L23.1874 17.5C22.9376 19.4993 21.2379 21 19.2228 21H15.2503C14.6426 21 14.1662 20.478 14.2213 19.8725L14.4374 17.5H14.8662C15.1593 17.5 15.3737 17.2243 15.2949 16.9487L14.2012 13.0112C14.1487 12.8187 13.9737 12.6875 13.7724 12.6875H12.8974C13.0987 12.6875 13.2737 12.8187 13.3262 13.0112L14.4199 16.9487C14.4987 17.2243 14.2843 17.5 13.9912 17.5H13.5624L13.2435 21L13.1599 21.9143C13.1424 22.1418 12.9499 22.3125 12.7268 22.3125H13.6018H23.6249L24.0624 18.8125L24.832 5.72946C24.3612 5.70627 23.9583 6.06458 23.9264 6.5349Z" fill="#BC6D04"/>
<path d="M16.625 5.25L15.75 4.8125L14.875 5.25V5.41712C14.875 5.74219 15.2171 5.95394 15.5081 5.80825L15.75 5.6875L16.4294 6.027C16.5524 6.08869 16.6976 6.08869 16.8206 6.027L17.5 5.6875L17.7419 5.80825C18.0329 5.95394 18.375 5.74219 18.375 5.41712V5.25L17.5 4.8125L16.625 5.25Z" fill="#C97700"/>
<path d="M24.9375 3.9375H19.25H18.375V4.8125V5.25L18.6865 5.40575C18.9455 5.53525 19.25 5.34713 19.25 5.0575V4.8125H24.885L24.9375 3.9375Z" fill="#C97700"/>
<path d="M14.875 3.9375H8.31247L8.25122 4.8125H14.875V3.9375Z" fill="#C97700"/>
<path d="M15.5981 1.89125V2.69319C15.5981 3.25625 16.4731 3.25713 16.4731 2.69319V1.89125C16.4731 1.32819 15.5981 1.32732 15.5981 1.89125Z" fill="#F9F4F4"/>
</g>
<defs>
<clipPath id="clip0_225_4333">
<rect width="28" height="28" fill="white"/>
</clipPath>
</defs>
</svg>
