<svg width="28" height="28" viewBox="0 0 28 28" fill="none" xmlns="http://www.w3.org/2000/svg">
<g clip-path="url(#clip0_225_4367)">
<path d="M14 23.8984C19.4366 23.8984 23.8438 19.4668 23.8438 14C23.8438 8.53324 19.4366 4.10156 14 4.10156C8.56345 4.10156 4.15625 8.53324 4.15625 14C4.15625 19.4668 8.56345 23.8984 14 23.8984Z" fill="#FF641A"/>
<path d="M23.8438 14C23.8438 8.57183 19.4282 4.10156 14 4.10156V23.8984C19.4282 23.8984 23.8438 19.4282 23.8438 14Z" fill="#F03800"/>
<path d="M18.7729 2.6011C17.7402 2.16529 16.6524 1.7711 15.5389 1.63252C15.0894 1.57647 14.7706 1.16708 14.8267 0.716892C14.882 0.268291 15.2913 -0.0425531 15.7423 0.00475154C17.004 0.161759 18.2386 0.595212 19.4105 1.08866C19.8279 1.26492 20.0233 1.74556 19.8479 2.1637C19.6728 2.57873 19.195 2.77648 18.7729 2.6011Z" fill="#FABE2C"/>
<path d="M23.8038 6.50885C23.1261 5.61564 22.3298 4.81933 21.4366 4.14165C21.0753 3.86766 21.0048 3.35256 21.2788 2.99206C21.5535 2.62997 22.0671 2.56189 22.4284 2.83423C23.4402 3.60248 24.343 4.50532 25.1112 5.51709C25.3852 5.87759 25.3147 6.39269 24.9534 6.66668C24.593 6.93935 24.0787 6.87082 23.8038 6.50885Z" fill="#FABE2C"/>
<path d="M26.3658 12.4611C26.2272 11.3477 25.78 10.2051 25.3442 9.17246C25.1687 8.75432 25.3642 8.27361 25.7815 8.09741C26.1989 7.92438 26.6804 8.11742 26.8566 8.5348C27.35 9.70681 27.8365 10.996 27.9935 12.2577C28.0496 12.7078 27.7308 13.1172 27.2814 13.1733C26.813 13.2278 26.4195 12.8963 26.3658 12.4611Z" fill="#FABE2C"/>
<path d="M8.15201 2.16369C7.97657 1.74555 8.17203 1.26485 8.5894 1.08865C9.76141 0.595203 10.9959 0.16175 12.2576 0.00474192C12.7062 -0.0425081 13.1171 0.268281 13.1732 0.716882C13.2293 1.16707 12.9104 1.57646 12.4611 1.63252C11.3476 1.77109 10.2597 2.16528 9.22706 2.60109C8.80596 2.77603 8.3275 2.57954 8.15201 2.16369Z" fill="#FED843"/>
<path d="M18.9219 9.89844C18.4685 9.89844 18.1016 10.2653 18.1016 10.7188V13.1797H16.4609V10.7188C16.4609 10.2653 16.094 9.89844 15.6406 9.89844C15.1872 9.89844 14.8203 10.2653 14.8203 10.7188V14C14.8203 14.4534 15.1872 14.8203 15.6406 14.8203H18.1016V17.2812C18.1016 17.7347 18.4685 18.1016 18.9219 18.1016C19.3753 18.1016 19.7422 17.7347 19.7422 17.2812V10.7188C19.7422 10.2653 19.3753 9.89844 18.9219 9.89844Z" fill="#D5E8FE"/>
<path d="M11.2106 15.4764C12.0878 14.8187 13.1797 14 13.1797 12.3594C13.1797 11.0024 12.0758 9.89844 10.7188 9.89844C9.36173 9.89844 8.25781 11.0024 8.25781 12.3594C8.25781 12.8128 8.62471 13.1797 9.07812 13.1797C9.53154 13.1797 9.89844 12.8128 9.89844 12.3594C9.89844 11.9068 10.2662 11.5391 10.7188 11.5391C11.1713 11.5391 11.5391 11.9068 11.5391 12.3594C11.5391 13.1412 11.0648 13.5354 10.2269 14.1642C9.3497 14.8219 8.25781 15.6406 8.25781 17.2812C8.25781 17.7347 8.62471 18.1016 9.07812 18.1016H12.3594C12.8128 18.1016 13.1797 17.7347 13.1797 17.2812C13.1797 16.8278 12.8128 16.4609 12.3594 16.4609H10.1589C10.3786 16.1328 10.7247 15.8411 11.2106 15.4764Z" fill="#EDF5FF"/>
<path d="M27.2814 14.8268C26.8296 14.7763 26.4211 15.0895 26.3658 15.5389C25.5999 21.6769 20.1948 26.3594 14 26.3594C7.21481 26.3594 1.64062 20.7852 1.64062 14.0001C1.64062 11.0096 2.78879 8.11558 4.71942 5.89286V6.16444C4.71942 6.61785 5.08632 6.98475 5.53973 6.98475C5.99315 6.98475 6.36005 6.61785 6.36005 6.16444V3.84448C6.36005 3.39107 5.99315 3.02417 5.53973 3.02417H3.21896C2.76555 3.02417 2.39865 3.39107 2.39865 3.84448C2.39865 4.2979 2.76555 4.66479 3.21896 4.66479H3.61402C1.34181 7.20541 0 10.5413 0 14.0001C0 21.6897 6.31039 28.0001 14 28.0001C21.0207 28.0001 27.126 22.699 27.9936 15.7424C28.0497 15.293 27.7308 14.8829 27.2814 14.8268Z" fill="#FED843"/>
<path d="M27.9936 15.7424C28.0497 15.293 27.7308 14.8828 27.2815 14.8267C26.8296 14.7763 26.4211 15.0895 26.3658 15.5389C25.5999 21.6768 20.1948 26.3594 14 26.3594V28C21.0207 28 27.126 22.699 27.9936 15.7424Z" fill="#FABE2C"/>
</g>
<defs>
<clipPath id="clip0_225_4367">
<rect width="28" height="28" fill="white"/>
</clipPath>
</defs>
</svg>
