<svg width="60" height="60" viewBox="0 0 60 60" fill="none" xmlns="http://www.w3.org/2000/svg">
<path d="M22.5456 2.8125H18.7045C14.4727 2.8125 10.9294 6.0191 10.5082 10.23L10.3125 12.1875C10.3125 19.1883 9.73406 22.2205 8.58316 29.1259L7.5 35.625H33.75L32.6668 29.1259C31.5159 22.2205 30.9375 19.1883 30.9375 12.1875L30.7418 10.23C30.3206 6.0191 26.7773 2.8125 22.5456 2.8125Z" fill="#244659"/>
<path d="M33.153 34.2977L25.3125 30.9375H15.9375L8.09695 34.2977C4.89105 35.6716 2.8125 38.824 2.8125 42.3117V57.1875H38.4375V42.3117C38.4375 38.824 36.3589 35.6716 33.153 34.2977Z" fill="#EDF4F7"/>
<path d="M20.625 37.5C18.0362 37.5 15.9375 35.4013 15.9375 32.8125V22.5H25.3125V32.8125C25.3125 35.4013 23.2138 37.5 20.625 37.5Z" fill="#EACCB6"/>
<path d="M16.8294 22.5H15.9375V32.8125C15.9375 35.4013 18.0362 37.5 20.625 37.5C20.6639 37.5 20.7023 37.498 20.741 37.4971C17.183 32.8146 16.8112 25.8472 16.8294 22.5Z" fill="#BFA694"/>
<path d="M21.6729 28.7132C20.9927 28.9399 20.2573 28.9399 19.5771 28.7132C15.1641 27.2422 12.1875 23.1124 12.1875 18.4607V13.125H17.3699C19.9395 13.125 22.2884 11.6733 23.4375 9.375C23.4375 11.4461 25.1164 13.125 27.1875 13.125H29.0625V18.4607C29.0625 23.1124 26.0859 27.2422 21.6729 28.7132Z" fill="#F5D6BF"/>
<path d="M30.2344 20.625H32.3438C33.6382 20.625 34.6875 19.5757 34.6875 18.2812V14.5312C34.6875 13.2368 33.6382 12.1875 32.3438 12.1875H30.2344C29.5871 12.1875 29.0625 12.7121 29.0625 13.3594V19.4531C29.0625 20.1004 29.5871 20.625 30.2344 20.625Z" fill="#FF7E64"/>
<path d="M18.7512 25.3126C18.7199 25.3126 18.6885 25.311 18.6567 25.3078L11.1622 24.5583C9.60891 24.403 8.4375 23.1087 8.4375 21.5476V18.75C8.4375 18.2323 8.85727 17.8125 9.375 17.8125C9.89273 17.8125 10.3125 18.2323 10.3125 18.75V21.5476C10.3125 22.1413 10.758 22.6336 11.3488 22.6927L18.8433 23.4422C19.3584 23.4936 19.7344 23.953 19.6829 24.4683C19.6345 24.9518 19.2268 25.3126 18.7512 25.3126Z" fill="#5FB9ED"/>
<path d="M11.0156 20.625H8.90625C7.6118 20.625 6.5625 19.5757 6.5625 18.2812V14.5312C6.5625 13.2368 7.6118 12.1875 8.90625 12.1875H11.0156C11.6629 12.1875 12.1875 12.7121 12.1875 13.3594V19.4531C12.1875 20.1004 11.6629 20.625 11.0156 20.625Z" fill="#FF7E64"/>
<path d="M22.0312 25.3125H19.2188C18.4421 25.3125 17.8125 24.6829 17.8125 23.9062C17.8125 23.1296 18.4421 22.5 19.2188 22.5H22.0312C22.8079 22.5 23.4375 23.1296 23.4375 23.9062C23.4375 24.6829 22.8079 25.3125 22.0312 25.3125Z" fill="#B65A48"/>
<path d="M38.4375 42.3115V57.1873H30L29.0625 32.5439L33.1535 34.2971C36.3586 35.6717 38.4375 38.824 38.4375 42.3115Z" fill="#5FB9ED"/>
<path d="M2.8125 42.3115V57.1873H11.25L12.1875 32.5439L8.09648 34.2971C4.89141 35.6717 2.8125 38.824 2.8125 42.3115Z" fill="#5FB9ED"/>
<path d="M5.19117 36.3276C3.69328 37.9156 2.8125 40.0425 2.8125 42.3117V57.1875H9.59648C4.97906 52.2949 4.83105 42.1817 5.19117 36.3276Z" fill="#4E98C3"/>
<path d="M8.4375 32.8125L16.875 39.375L20.625 37.5L15 30.9375L8.4375 32.8125Z" fill="#4B92BB"/>
<path d="M32.8125 32.8125L24.375 39.375L20.625 37.5L26.25 30.9375L32.8125 32.8125Z" fill="#4B92BB"/>
<path d="M20.625 37.5C20.1073 37.5 19.6875 37.9198 19.6875 38.4375V57.1875H21.5625V38.4375C21.5625 37.9198 21.1427 37.5 20.625 37.5Z" fill="#2F5B74"/>
<path d="M18.7506 16.875C18.4826 16.875 18.2165 16.7608 18.0311 16.5392C17.7114 16.1572 17.301 15.9468 16.875 15.9468C16.4491 15.9468 16.0387 16.1572 15.719 16.5392C15.3869 16.9361 14.7954 16.9887 14.3984 16.6566C14.0013 16.3242 13.9488 15.733 14.2811 15.3359C14.9631 14.5207 15.8843 14.0718 16.875 14.0718C17.8658 14.0718 18.787 14.5207 19.469 15.3359C19.8012 15.733 19.7487 16.3242 19.3517 16.6566C19.1763 16.8034 18.9629 16.875 18.7506 16.875Z" fill="#614427"/>
<path d="M26.2506 16.875C25.9826 16.875 25.7165 16.7608 25.5311 16.5392C25.2114 16.1572 24.801 15.9468 24.375 15.9468C23.9491 15.9468 23.5387 16.1572 23.219 16.5392C22.8868 16.9361 22.2954 16.9887 21.8984 16.6566C21.5013 16.3242 21.4488 15.733 21.7811 15.3359C22.4631 14.5207 23.3843 14.0718 24.375 14.0718C25.3658 14.0718 26.287 14.5207 26.969 15.3359C27.3012 15.733 27.2487 16.3242 26.8517 16.6566C26.6763 16.8034 26.4629 16.875 26.2506 16.875Z" fill="#614427"/>
<path d="M55.2746 54.375H34.7254C33.6689 54.375 32.8125 53.5186 32.8125 52.4621V39.4129C32.8125 38.3564 33.6689 37.5 34.7254 37.5H55.2746C56.3311 37.5 57.1875 38.3564 57.1875 39.4129V52.4621C57.1875 53.5186 56.3311 54.375 55.2746 54.375Z" fill="#4B92BB"/>
<path d="M35.2688 37.5H34.7254C33.6689 37.5 32.8125 38.3564 32.8125 39.4129V52.4621C32.8125 53.5186 33.6689 54.375 34.7254 54.375H40.5963C35.157 49.7238 34.9404 41.7288 35.2688 37.5Z" fill="#3D7697"/>
<path d="M50.333 58.125H44.708L42.2191 48.1697C42.0547 47.512 42.5521 46.875 43.23 46.875H46.7069C47.1851 46.875 47.6018 47.2004 47.7178 47.6643L50.333 58.125Z" fill="#244659"/>
<path d="M48.75 58.125H41.25C40.7323 58.125 40.3125 57.7052 40.3125 57.1875C40.3125 56.6698 40.7323 56.25 41.25 56.25H48.75C49.2677 56.25 49.6875 56.6698 49.6875 57.1875C49.6875 57.7052 49.2677 58.125 48.75 58.125Z" fill="#244659"/>
</svg>
