<svg width="28" height="28" viewBox="0 0 28 28" fill="none" xmlns="http://www.w3.org/2000/svg">
<g clip-path="url(#clip0_225_4250)">
<path d="M10.4691 23.1907C10.6454 24.8577 10.1366 26.5248 9.05941 27.8093C8.93801 27.9753 8.72052 28.0395 8.52838 27.9662C7.59279 27.5022 4.79376 25.842 5.29872 22.7041C2.15838 23.2091 0.499138 20.41 0.0366557 19.4744C-0.0367326 19.2823 0.0275254 19.0648 0.193552 18.9434C1.47798 17.8662 3.14508 17.3574 4.8121 17.5337L10.4691 23.1907Z" fill="#2FA8CC"/>
<path d="M27.6508 15.1711C26.7671 16.7062 25.665 18.1047 24.3792 19.3229C19.4951 24.1553 10.3367 24.862 6.73819 21.2621C3.13971 17.6622 3.84502 8.50522 8.67695 3.62067C9.90862 2.32687 11.321 1.21807 12.8702 0.328735L27.6508 15.1711Z" fill="#67B9CC"/>
<path d="M27.1457 15.8695C29.1809 13.8342 27.469 8.82251 23.322 4.6755C19.1749 0.528488 14.1632 -1.18344 12.128 0.851799C10.0928 2.88704 11.8047 7.89874 15.9517 12.0458C20.0987 16.1928 25.1104 17.9047 27.1457 15.8695Z" fill="#FF5364"/>
<path d="M19.0269 17.1659C18.8384 16.9775 18.5328 16.9775 18.3443 17.1659C17.9783 17.5318 17.4449 17.6747 16.945 17.5407C16.4452 17.4067 16.0547 17.0162 15.9209 16.5163C15.787 16.0164 15.9299 15.483 16.2959 15.1171C16.4789 14.9277 16.4763 14.6266 16.2901 14.4404C16.1038 14.2541 15.8027 14.2515 15.6133 14.4345C15.0405 14.9819 14.1383 14.9819 13.5655 14.4345C13.0001 13.8689 13.0001 12.9522 13.5655 12.3866C13.7484 12.1972 13.7458 11.8961 13.5596 11.7099C13.3734 11.5237 13.0723 11.521 12.8828 11.704C12.5168 12.07 11.9834 12.2129 11.4835 12.079C10.9835 11.945 10.593 11.5545 10.459 11.0545C10.3251 10.5546 10.468 10.0212 10.834 9.65517C11.017 9.46575 11.0143 9.16465 10.8281 8.97843C10.6419 8.79222 10.3408 8.7896 10.1514 8.97255C9.3456 9.80231 9.22987 11.0826 9.8738 12.0434C9.30889 12.8664 9.30889 13.9523 9.8738 14.7753C9.33448 15.5625 9.3095 16.5935 9.81007 17.4059C9.24819 17.6971 8.5635 17.6002 8.10449 17.1645C7.83268 16.8929 7.67997 16.5243 7.67997 16.1401C7.67997 15.7558 7.83268 15.3873 8.10449 15.1157C8.28253 14.9253 8.27729 14.6279 8.09265 14.4439C7.90801 14.26 7.61065 14.2558 7.4209 14.4345C6.73043 15.1248 6.5238 16.163 6.89737 17.0651C7.27093 17.9671 8.15111 18.5553 9.12745 18.5553C9.24544 18.5525 9.36306 18.541 9.47938 18.521C9.3264 19.5492 9.85014 20.5595 10.7785 21.0271C11.7068 21.4946 12.8304 21.314 13.5655 20.579C13.7484 20.3896 13.7458 20.0885 13.5596 19.9023C13.3734 19.7161 13.0723 19.7135 12.8828 19.8964C12.3761 20.4053 11.5725 20.4646 10.9965 20.0356C10.4206 19.6066 10.2473 18.8197 10.5897 18.1884C11.4003 18.6974 12.4363 18.6736 13.2227 18.1281C14.0446 18.6977 15.1337 18.6977 15.9556 18.1281C16.9126 18.7887 18.2049 18.6711 19.0269 17.8486C19.2154 17.66 19.2154 17.3544 19.0269 17.1659ZM12.2007 13.0567C12.1838 13.1739 12.1754 13.2921 12.1756 13.4106C12.1764 13.858 12.3029 14.2963 12.5406 14.6754C11.9786 14.967 11.2935 14.87 10.8345 14.434C10.3857 13.9819 10.286 13.2892 10.5892 12.7289C11.073 13.0194 11.6419 13.1351 12.2007 13.0567ZM10.834 17.1659C10.3851 16.7124 10.2859 16.0186 10.5897 15.4574C11.068 15.77 11.6472 15.8887 12.2099 15.7896C12.1899 15.9059 12.1785 16.0235 12.1756 16.1415C12.1765 16.5905 12.3036 17.0301 12.5425 17.4102C11.9814 17.714 11.2875 17.6148 10.834 17.1659ZM13.5655 17.1659C13.111 16.7168 13.0101 16.0205 13.3183 15.4608C13.8004 15.7576 14.3709 15.8771 14.9317 15.7988C14.8524 16.3575 14.9707 16.9265 15.2662 17.4073C14.7056 17.6963 14.0235 17.5995 13.5655 17.1659Z" fill="#3B97D3"/>
<path d="M22.0991 9.99696L20.0034 7.9013C20.2906 7.36357 20.3566 6.73502 20.1874 6.14937C19.9819 5.40609 19.5819 4.73103 19.0287 4.19372C18.3391 3.4535 17.3916 3.00642 16.3818 2.94482C15.8413 2.92962 15.3177 3.1341 14.9306 3.51158C13.9579 4.48482 14.2514 6.24593 15.6132 7.60827C16.3024 8.34806 17.2491 8.79524 18.2583 8.85765C18.6305 8.86151 18.997 8.76638 19.3203 8.58199L21.4189 10.6801C21.6083 10.863 21.9094 10.8604 22.0956 10.6742C22.2818 10.488 22.2845 10.1869 22.1015 9.99744L22.0991 9.99696Z" fill="#DF4D60"/>
<path d="M19.0239 7.60786C19.5895 7.04236 19.2838 5.81988 18.3413 4.87738C17.3988 3.93488 16.1763 3.62926 15.6108 4.19476C15.0453 4.76026 15.351 5.98274 16.2935 6.92524C17.236 7.86774 18.4584 8.17336 19.0239 7.60786Z" fill="#ECF0F1"/>
</g>
<defs>
<clipPath id="clip0_225_4250">
<rect width="28" height="28" fill="white"/>
</clipPath>
</defs>
</svg>
