<svg width="64" height="11" viewBox="0 0 64 11" fill="none" xmlns="http://www.w3.org/2000/svg">
<path d="M9.65746 0.849609H0V9.89861H9.65746V0.849609Z" fill="black"/>
<path d="M2.94556 3.04497C3.37221 2.97952 3.80318 2.94637 4.23482 2.9458C5.10595 2.9458 5.72513 3.14951 6.13791 3.53281C6.36357 3.74927 6.5396 4.0121 6.6539 4.30316C6.7682 4.59422 6.81803 4.9066 6.79996 5.21878C6.8157 5.5528 6.76401 5.88657 6.64796 6.20018C6.53191 6.51379 6.35388 6.80081 6.1245 7.04412C5.68491 7.48371 4.95853 7.72226 4.04719 7.72226C3.67921 7.72432 3.31141 7.70552 2.94556 7.66597V3.04497ZM3.55133 7.1969C3.75458 7.22579 3.95991 7.23745 4.16513 7.23174C5.45976 7.23174 6.16471 6.50804 6.16471 5.24022C6.16471 4.13053 5.54555 3.42827 4.26164 3.42827C4.02338 3.42429 3.78534 3.44495 3.55133 3.48992V7.1969Z" fill="white"/>
<path d="M19.8003 0.849609H10.1428V9.89861H19.8003V0.849609Z" fill="black"/>
<path d="M13.0857 7.67944V2.98071H13.7477L15.2541 5.35822C15.568 5.84748 15.8492 6.35697 16.0958 6.88336H16.1118C16.0556 6.25615 16.0422 5.68522 16.0422 4.95348V2.98607H16.6131V7.67944H15.9993L14.509 5.29657C14.1839 4.79249 13.8903 4.26881 13.6298 3.72854H13.6084C13.6432 4.3209 13.6566 4.88647 13.6566 5.66646V7.67407L13.0857 7.67944Z" fill="white"/>
<path d="M30.0366 0.849609H20.3792V9.89861H30.0366V0.849609Z" fill="black"/>
<path d="M25.6732 2.98071V7.67944H25.0674V2.98071H25.6732Z" fill="white"/>
<path d="M52.0344 0.849609H42.377V9.89861H52.0344V0.849609Z" fill="black"/>
<path d="M45.752 3.04489C46.1366 2.97518 46.527 2.94197 46.9179 2.94572C47.5666 2.94572 47.9901 3.06633 48.2769 3.32901C48.3982 3.44314 48.4939 3.58172 48.5577 3.73559C48.6214 3.88946 48.6518 4.05511 48.6468 4.22159C48.6504 4.49087 48.5656 4.75391 48.4053 4.97034C48.2451 5.18678 48.0182 5.34465 47.7596 5.41972V5.44116C48.1241 5.56714 48.3385 5.90219 48.4511 6.39002C48.5336 6.82958 48.6547 7.26101 48.813 7.67929H48.1858C48.0446 7.31614 47.9395 6.93996 47.8721 6.55621C47.7328 5.90755 47.4808 5.66364 46.9313 5.64488H46.3604V7.67929H45.752V3.04489ZM46.3604 5.18921H46.9796C47.6282 5.18921 48.0383 4.83272 48.0383 4.29664C48.0383 3.69087 47.6014 3.42551 46.9662 3.42015C46.7655 3.41462 46.5649 3.43261 46.3684 3.47376L46.3604 5.18921Z" fill="white"/>
<path d="M40.8572 0H31.4865C30.9062 0 30.4358 0.47042 30.4358 1.05071V9.69766C30.4358 10.2779 30.9062 10.7484 31.4865 10.7484H40.8572C41.4374 10.7484 41.9079 10.2779 41.9079 9.69766V1.05071C41.9079 0.47042 41.4374 0 40.8572 0Z" fill="#6B9B35"/>
<path d="M34.9656 2.60007C35.4228 2.52563 35.8854 2.48977 36.3487 2.49286C37.0616 2.49286 37.5816 2.65636 37.914 2.95389C38.0753 3.1016 38.2025 3.28265 38.2867 3.48446C38.3709 3.68627 38.4102 3.904 38.4018 4.12253C38.4124 4.34001 38.3797 4.55742 38.3056 4.76217C38.2315 4.96691 38.1175 5.15493 37.9703 5.31531C37.7419 5.52673 37.4732 5.68984 37.1803 5.79486C36.8874 5.89987 36.5762 5.94463 36.2656 5.92644C36.0714 5.93245 35.8771 5.91627 35.6866 5.87819V8.11096H34.9656V2.60007ZM35.6866 5.28046C35.8816 5.32546 36.0816 5.34528 36.2816 5.33943C37.1528 5.33943 37.6808 4.91594 37.6808 4.14666C37.6808 3.37739 37.1608 3.05574 36.3647 3.05574C36.1373 3.04957 35.9099 3.06845 35.6866 3.11203V5.28046Z" fill="white"/>
<path d="M62.9492 0H53.5785C52.9982 0 52.5278 0.47042 52.5278 1.05071V9.69766C52.5278 10.2779 52.9982 10.7484 53.5785 10.7484H62.9492C63.5295 10.7484 63.9999 10.2779 63.9999 9.69766V1.05071C63.9999 0.47042 63.5295 0 62.9492 0Z" fill="#FF005C"/>
<path d="M60.9582 5.26424C60.9582 7.18608 59.7896 8.21267 58.3663 8.21267C56.892 8.21267 55.8574 7.07083 55.8574 5.38218C55.8574 3.61044 56.9591 2.45251 58.4494 2.45251C59.9397 2.45251 60.9582 3.60776 60.9582 5.26424ZM56.6267 5.35537C56.6267 6.54815 57.2727 7.61494 58.4065 7.61494C59.5403 7.61494 60.1943 6.56423 60.1943 5.29641C60.1943 4.1894 59.6153 3.0288 58.4145 3.0288C57.2137 3.0288 56.6267 4.13044 56.6267 5.35537Z" fill="white"/>
</svg>
