<svg width="138" height="23" viewBox="0 0 138 23" fill="none" xmlns="http://www.w3.org/2000/svg">
<path fill-rule="evenodd" clip-rule="evenodd" d="M54.3263 0.529236H61.5644C65.5219 0.529236 68.7593 3.76659 68.7593 7.72412V14.9622C68.7593 18.9197 65.5219 22.157 61.5644 22.157H54.3263C50.3688 22.157 47.1314 18.9197 47.1314 14.9622V7.72412C47.1314 3.76659 50.3688 0.529236 54.3263 0.529236Z" fill="white"/>
<path d="M61.5643 1.06094H54.3263C52.4929 1.06094 50.8277 1.81065 49.6191 3.01926C48.4104 4.22788 47.6607 5.89313 47.6607 7.72649V14.9645C47.6607 16.7979 48.4104 18.4632 49.6191 19.6718C50.8277 20.8804 52.4929 21.6301 54.3263 21.6301H61.5643C63.3977 21.6301 65.0629 20.8804 66.2716 19.6718C67.4802 18.4632 68.2299 16.7979 68.2299 14.9645V7.72422C68.2299 5.89085 67.4802 4.2256 66.2716 3.01699C65.0629 1.81065 63.3954 1.06094 61.5643 1.06094ZM54.3263 0H61.5643C63.6885 0 65.6218 0.870111 67.0213 2.26956C68.4207 3.669 69.2908 5.60006 69.2908 7.72649V14.9645C69.2908 17.0887 68.4207 19.022 67.0213 20.4215C65.6218 21.8209 63.6908 22.691 61.5643 22.691H54.3263C52.2021 22.691 50.2688 21.8232 48.8693 20.4215C47.4699 19.022 46.5998 17.091 46.5998 14.9645V7.72422C46.5998 5.60006 47.4676 3.66673 48.8693 2.26729C50.2688 0.867839 52.1998 0 54.3263 0Z" fill="#6B9B35"/>
<path fill-rule="evenodd" clip-rule="evenodd" d="M59.047 18.3746C57.3636 17.7157 57.7612 16.9138 58.7949 16.3844C59.0993 16.2277 59.4037 16.0596 59.6945 15.8597C61.8096 14.3989 62.8342 11.9498 62.5774 9.56214C62.6229 11.759 61.6006 13.9354 59.6581 15.2781C59.2061 15.5916 58.7335 15.8574 58.236 16.03C58.0951 16.08 57.952 16.1277 57.8112 16.1777C56.1186 16.7502 56.0051 14.8737 56.3345 13.7718C56.7252 12.4678 57.4727 11.9862 58.2155 11.5091C58.997 11.007 59.774 10.5095 60.2466 9.23954C60.5533 8.41714 60.601 7.50386 60.4033 6.63602C60.2011 5.74546 59.7377 4.90262 59.0289 4.25287C58.8289 4.06885 58.6131 3.89619 58.3723 3.75307C58.3087 3.71672 58.2451 3.6781 58.1815 3.64175C58.0383 3.49181 57.7566 3.31233 58.4473 3.34868C58.5291 3.35323 58.6108 3.36004 58.6926 3.36686C61.3597 3.61676 63.8406 5.20022 65.1196 7.77421C67.1779 11.9203 64.5858 20.0307 59.047 18.3746Z" fill="#6B9B35"/>
<path fill-rule="evenodd" clip-rule="evenodd" d="M60.7941 4.66876C62.3684 5.27761 63.7315 6.45215 64.5403 8.08332C66.0284 11.0776 64.7402 16.4346 61.5188 17.3956C65.6967 14.2831 65.499 7.21548 60.7941 4.66876Z" fill="#A4CB70"/>
<path d="M4.59818 8.74901V10.0031H8.56934C9.82339 10.0031 10.6594 10.8391 10.6594 11.8841C10.6594 12.9292 9.82339 13.7652 8.56934 13.7652H4.59818V15.0193H10.4504C11.9135 15.0193 12.7495 15.8553 12.7495 17.1093C12.7495 18.3634 11.9135 19.1994 10.4504 19.1994H2.29909C0.836033 19.1994 0 18.3634 0 17.1093V6.65893C0 5.40488 0.836033 4.56885 2.29909 4.56885H10.2414C11.7045 4.56885 12.5405 5.40488 12.5405 6.65893C12.5405 7.91298 11.7045 8.74901 10.2414 8.74901H4.59818Z" fill="#6B9B35"/>
<path d="M13.7945 10.4208C13.7945 6.86762 16.5116 4.15051 20.7963 4.15051C24.4539 4.15051 26.544 6.2406 26.544 7.70365C26.544 8.8532 25.8125 9.58473 24.2449 9.58473C22.5728 9.58473 22.3638 8.12167 20.7963 8.12167C19.4377 8.12167 18.4972 9.06221 18.4972 10.4208V13.3469C18.4972 14.7054 19.4377 15.646 20.7963 15.646C22.5728 15.646 22.7819 14.1829 24.4539 14.1829C26.0215 14.1829 26.753 14.9144 26.753 16.064C26.753 17.527 24.6629 19.6171 20.7963 19.6171C16.5116 19.6171 13.7945 16.9 13.7945 13.3469V10.4208Z" fill="#6B9B35"/>
<path d="M41.8016 13.3469C41.8016 16.9 39.0845 19.6171 34.7998 19.6171C30.5151 19.6171 27.798 16.9 27.798 13.3469V10.4208C27.798 6.86762 30.5151 4.15051 34.7998 4.15051C39.0845 4.15051 41.8016 6.86762 41.8016 10.4208V13.3469ZM37.0989 10.4208C37.0989 8.7487 36.0538 7.70365 34.7998 7.70365C33.5457 7.70365 32.5007 8.7487 32.5007 10.4208V13.3469C32.5007 15.0189 33.5457 16.064 34.7998 16.064C36.0538 16.064 37.0989 15.0189 37.0989 13.3469V10.4208Z" fill="#6B9B35"/>
<path d="M73.5209 8.9577C73.5209 6.2406 75.611 4.15051 79.7912 4.15051C83.4488 4.15051 85.5389 6.2406 85.5389 7.70365C85.5389 8.8532 84.8074 9.58473 83.2398 9.58473C81.5678 9.58473 81.3588 8.12167 79.7912 8.12167C78.7461 8.12167 78.3281 8.53969 78.3281 8.9577C78.3281 10.4208 86.0614 9.79374 86.0614 14.6009C86.0614 17.318 83.7623 19.6171 79.1642 19.6171C75.2975 19.6171 73.2074 17.527 73.2074 16.064C73.2074 14.9144 73.939 14.1829 75.5065 14.1829C77.1786 14.1829 77.3876 15.646 79.1642 15.646C80.7317 15.646 81.2542 15.1234 81.2542 14.6009C81.2542 13.3469 73.5209 13.9739 73.5209 8.9577Z" fill="#6B9B35"/>
<path d="M87.7336 13.556V6.45196C87.7336 5.19791 88.5696 4.36188 90.0326 4.36188C91.4957 4.36188 92.3317 5.19791 92.3317 6.45196V13.5582C92.3317 15.0213 93.1678 15.8573 94.4218 15.8573C95.6759 15.8573 96.5119 15.0213 96.5119 13.5582V6.45196C96.5119 5.19791 97.3479 4.36188 98.811 4.36188C100.274 4.36188 101.11 5.19791 101.11 6.45196V13.5582C101.11 17.1114 98.602 19.6195 94.4218 19.6195C90.2417 19.6195 87.7336 17.1091 87.7336 13.556Z" fill="#6B9B35"/>
<path d="M103.096 8.9577C103.096 6.2406 105.186 4.15051 109.366 4.15051C113.023 4.15051 115.114 6.2406 115.114 7.70365C115.114 8.8532 114.382 9.58473 112.814 9.58473C111.142 9.58473 110.933 8.12167 109.366 8.12167C108.321 8.12167 107.903 8.53969 107.903 8.9577C107.903 10.4208 115.636 9.79374 115.636 14.6009C115.636 17.318 113.337 19.6171 108.739 19.6171C104.872 19.6171 102.782 17.527 102.782 16.064C102.782 14.9144 103.514 14.1829 105.081 14.1829C106.753 14.1829 106.962 15.646 108.739 15.646C110.306 15.646 110.829 15.1234 110.829 14.6009C110.829 13.3469 103.096 13.9739 103.096 8.9577Z" fill="#6B9B35"/>
<path d="M121.906 10.0028H126.086V6.45196C126.086 5.19791 126.923 4.36188 128.386 4.36188C129.849 4.36188 130.685 5.19791 130.685 6.45196V17.3204C130.685 18.5744 129.849 19.4105 128.386 19.4105C126.923 19.4105 126.086 18.5744 126.086 17.3204V13.974H121.906V17.3181C121.906 18.5722 121.07 19.4082 119.607 19.4082C118.144 19.4082 117.308 18.5722 117.308 17.3181V6.45196C117.308 5.19791 118.144 4.36188 119.607 4.36188C121.07 4.36188 121.906 5.19791 121.906 6.45196V10.0028Z" fill="#6B9B35"/>
<path d="M138 17.3181C138 18.5722 137.164 19.4082 135.701 19.4082C134.238 19.4082 133.402 18.5722 133.402 17.3181V6.45196C133.402 5.19791 134.238 4.36188 135.701 4.36188C137.164 4.36188 138 5.19791 138 6.45196V17.3181Z" fill="#6B9B35"/>
<path fill-rule="evenodd" clip-rule="evenodd" d="M58.2723 4.10747C58.3541 4.17108 58.4336 4.23696 58.5086 4.30739C59.0993 4.84809 59.4855 5.55235 59.6559 6.29751C59.8217 7.02223 59.7808 7.78329 59.5264 8.46711C59.147 9.48716 58.4859 9.91881 57.818 10.3459C57.6589 9.16002 57.6317 7.96731 57.7544 6.76778C57.8452 5.88631 58.0156 4.99803 58.2723 4.10747ZM54.9305 3.36004C55.3099 3.28052 55.7074 3.25553 56.1141 3.29416C56.8479 3.36231 57.4749 3.58268 57.9906 3.90982C57.7112 4.8549 57.5272 5.79771 57.4318 6.73598C57.3023 8.01047 57.3341 9.28043 57.5158 10.5413C57.1546 10.7798 56.7979 11.0411 56.4799 11.3978C55.8778 10.1823 55.4348 8.90785 55.1713 7.57428C54.9055 6.23617 54.8192 4.83446 54.9305 3.36004ZM51.7158 5.69775C52.4769 4.60727 53.4629 3.7826 54.5988 3.4441C54.4966 4.90715 54.5874 6.30206 54.8532 7.63789C55.1327 9.05097 55.6075 10.3959 56.2572 11.6772C56.0573 11.9521 55.8756 12.2792 55.7256 12.6791C54.7964 11.7522 53.9922 10.7276 53.3266 9.59167C52.6359 8.41713 52.093 7.12219 51.7158 5.69775ZM50.071 10.6322C50.1551 9.01008 50.6617 7.37663 51.4773 6.06124C51.859 7.40617 52.386 8.63523 53.0449 9.75751C53.7514 10.9639 54.6124 12.0475 55.6075 13.0244L55.6007 13.0471C55.4757 13.4674 55.4166 13.8922 55.4212 14.3125C54.3125 13.8604 53.2675 13.2879 52.2906 12.5859C51.5046 12.0203 50.7639 11.3705 50.071 10.6322ZM50.9843 14.7851C50.9116 14.6578 50.8412 14.5261 50.7753 14.3943C50.2823 13.3993 50.0574 12.2565 50.0597 11.0911C50.7026 11.7499 51.3842 12.3338 52.1021 12.8495C53.1426 13.5969 54.258 14.2012 55.4416 14.6715C55.4871 15.1508 55.6143 15.6211 55.8165 16.0596C55.871 16.1822 55.9346 16.3004 56.0005 16.4185C54.8328 16.2527 53.6946 15.9596 52.5905 15.528C52.0453 15.3121 51.5114 15.0668 50.9843 14.7851ZM58.4336 18.8221C55.662 18.9925 52.9222 17.7021 51.3137 15.3212C51.6954 15.5075 52.0816 15.6779 52.4701 15.8301C53.6855 16.3072 54.9418 16.6162 56.2277 16.7775C56.4412 17.0773 56.6934 17.3568 56.9819 17.6044C57.4295 17.9883 57.9611 18.3178 58.579 18.52C59.0311 18.6631 58.813 18.7971 58.4336 18.8221Z" fill="#E4200F"/>
<path fill-rule="evenodd" clip-rule="evenodd" d="M50.6254 13.8446C51.7113 14.5261 53.0563 15.1668 55.4008 16.0551C54.3467 15.7415 52.895 15.5394 50.789 14.3376L50.6254 13.8446ZM50.2392 9.89613C51.2751 11.1275 52.4202 12.1611 55.1077 14.0059C54.0036 13.3629 52.3497 12.7405 50.1574 10.3596L50.2392 9.89613ZM52.1384 5.58419C52.7109 7.40166 53.3516 8.83291 55.4053 11.9862C54.5557 10.8594 53.1244 9.49629 51.8454 5.87499L52.1384 5.58419ZM54.9646 3.59862C55.0759 3.67813 55.235 3.4873 55.3463 3.56681C55.2804 5.62054 55.3894 7.14721 56.3663 10.9911C55.9097 9.59852 54.9373 7.76288 54.9646 3.59862ZM58.2883 4.62094C58.3973 4.705 58.5041 4.78905 58.6132 4.87311C58.0429 6.68149 57.993 8.20816 57.8226 9.80071C57.7476 8.25814 57.7976 6.61561 58.2883 4.62094ZM58.2156 18.629C55.1509 18.5473 53.447 17.5386 51.7954 15.8756C54.1672 17.4772 55.2804 17.977 58.2156 18.629Z" fill="#EB5834"/>
</svg>
