<svg width="221" height="49" viewBox="0 0 221 49" fill="none" xmlns="http://www.w3.org/2000/svg">
<path d="M78.6557 35.3861C76.7037 35.3861 75.0305 34.9356 73.6576 34.0561C72.2848 33.1552 71.3409 31.9325 70.7832 30.388L73.6791 28.6934C74.4942 30.9886 76.1888 32.1255 78.7415 32.1255C80.0071 32.1255 80.951 31.8681 81.573 31.3748C82.1951 30.8814 82.5169 30.2379 82.5169 29.4442C82.5169 28.6076 82.1737 27.9855 81.5087 27.535C80.8223 27.106 79.621 26.6126 77.9049 26.0978C76.9396 25.7975 76.146 25.5401 75.5453 25.2827C74.9447 25.0253 74.3012 24.6821 73.6362 24.2316C72.9712 23.7811 72.4778 23.2019 72.1346 22.5369C71.8128 21.8505 71.6412 21.0568 71.6412 20.1559C71.6412 18.354 72.2848 16.9168 73.5504 15.8657C74.8374 14.8146 76.3819 14.2783 78.1838 14.2783C79.8141 14.2783 81.2298 14.6859 82.4525 15.4796C83.6752 16.2733 84.6191 17.3673 85.2841 18.7616L82.4525 20.3918C81.5945 18.4827 80.1787 17.5389 78.1838 17.5389C77.2185 17.5389 76.4463 17.7748 75.8671 18.2253C75.2879 18.6758 74.9876 19.2978 74.9876 20.0701C74.9876 20.8209 75.2879 21.4215 75.8671 21.8505C76.4677 22.2795 77.5188 22.7515 79.0847 23.2234C79.857 23.4808 80.4361 23.6738 80.7794 23.7811C81.144 23.9098 81.6374 24.1029 82.2809 24.3817C82.9245 24.6606 83.4178 24.918 83.7396 25.1969C84.0614 25.4757 84.426 25.7975 84.7907 26.2051C85.1768 26.6126 85.4342 27.0846 85.5844 27.5994C85.7345 28.1142 85.8203 28.7148 85.8203 29.3798C85.8203 31.2246 85.1554 32.6833 83.8254 33.7558C82.5598 34.8498 80.8223 35.3861 78.6557 35.3861Z" fill="white"/>
<path d="M109.395 14.6426H112.742V34.9996H109.395V26.1832H100.665V34.9996H97.3184V14.6426H100.665V22.987H109.395V14.6426Z" fill="white"/>
<path d="M138.805 35.021L137.389 30.9239H128.723L127.307 35.021H123.66L131.039 14.6641H135.051L142.408 35.021H138.805ZM129.817 27.7706H136.273L133.056 18.5896L129.817 27.7706Z" fill="white"/>
<path d="M165.231 17.8602H156.651V23.5447H164.931V26.7409H156.651V34.9996H153.305V14.6426H165.231V17.8602Z" fill="white"/>
<path d="M180.44 31.8034H189.45V34.9996H177.094V14.6426H189.299V17.8388H180.419V23.1372H188.57V26.3119H180.419V31.8034H180.44Z" fill="#C69D67"/>
<path d="M220.726 14.6425V34.9995H217.379V20.4772L211.18 30.7093H210.772L204.573 20.4343V34.9781H201.227V14.6211H204.83L210.965 24.8103L217.122 14.6211H220.726V14.6425Z" fill="#C69D67"/>
<path d="M60.2295 14.2787L49.1822 3.23141C47.5734 1.62258 45.364 0.700195 43.0902 0.700195H18.443C16.1477 0.700195 13.9597 1.60113 12.3509 3.23141L1.13203 14.4503C-0.412438 15.9947 -0.369531 18.4831 1.21784 19.9846L19.7729 37.4672C23.2265 40.7063 28.6107 40.6205 31.9571 37.2741L42.1678 27.0635C40.1299 27.0635 38.1779 27.8786 36.7407 29.3158L30.477 35.5795C27.9458 38.1107 23.8701 38.1751 21.2745 35.7296L5.35788 20.8641C4.75725 20.2849 5.12191 19.2767 5.9585 19.2338L42.3608 17.2818H3.66325C2.86957 17.2818 2.462 16.3165 3.01972 15.7373L13.2733 5.48376C14.8821 3.87494 17.0916 2.95255 19.3654 2.95255H42.1463C44.4416 2.95255 46.6296 3.85349 48.2384 5.48376L58.5134 15.7588C59.35 16.5954 59.35 17.9468 58.5134 18.7834L33.8019 43.5163C32.3647 44.9536 31.5495 46.9056 31.5495 48.9435L60.208 20.2849C61.8812 18.6332 61.8812 15.9304 60.2295 14.2787Z" fill="#C69D67"/>
</svg>
